<?xml version="1.0" encoding="UTF-8"?>
<svg xmlns="http://www.w3.org/2000/svg" viewBox="0 0 800 450" 
     width="800" height="450" style="background: white; font-family: Arial, Helvetica, sans-serif;">
  <text x="400" y="35" font-size="20" fill="#333333" text-anchor="middle" font-weight="bold">The Concentration Gradient</text>
  <rect x="40" y="55" width="720" height="310" fill="#fafafa" stroke="#ddd" rx="12" />
  <line x1="400" y1="75" x2="400" y2="345" stroke="#bbb" stroke-width="1.5" stroke-dasharray="6,4" />
  <rect x="50" y="60" width="340" height="50" fill="#e65100" stroke="#e65100" rx="8" />
  <text x="220" y="92" font-size="16" fill="white" text-anchor="middle" font-weight="bold">HIGH Concentration</text>
  <rect x="410" y="60" width="340" height="50" fill="#00695c" stroke="#00695c" rx="8" />
  <text x="580" y="92" font-size="16" fill="white" text-anchor="middle" font-weight="bold">LOW Concentration</text>
  <circle cx="204.2796276761556" cy="135.00215104453338" r="8" fill="#FF8A65" stroke="#e65100" stroke-width="1.5" />
  <circle cx="127.75615685751504" cy="174.64214762976457" r="8" fill="#FF8A65" stroke="#e65100" stroke-width="1.5" />
  <circle cx="224.6589549744426" cy="265.33989748458225" r="8" fill="#FF8A65" stroke="#e65100" stroke-width="1.5" />
  <circle cx="257.3577092180175" cy="147.38776652588322" r="8" fill="#FF8A65" stroke="#e65100" stroke-width="1.5" />
  <circle cx="158.6035821339068" cy="135.95944388761407" r="8" fill="#FF8A65" stroke="#e65100" stroke-width="1.5" />
  <circle cx="115.91397470875671" cy="231.0710576206725" r="8" fill="#FF8A65" stroke="#e65100" stroke-width="1.5" />
  <circle cx="75.57255363361136" cy="169.7675301373297" r="8" fill="#FF8A65" stroke="#e65100" stroke-width="1.5" />
  <circle cx="206.47573193369988" cy="238.98829612064333" r="8" fill="#FF8A65" stroke="#e65100" stroke-width="1.5" />
  <circle cx="116.2925306285463" cy="247.85313677518172" r="8" fill="#FF8A65" stroke="#e65100" stroke-width="1.5" />
  <circle cx="239.98039590234362" cy="131.2997519356122" r="8" fill="#FF8A65" stroke="#e65100" stroke-width="1.5" />
  <circle cx="239.22204288488967" cy="269.6278789976454" r="8" fill="#FF8A65" stroke="#e65100" stroke-width="1.5" />
  <circle cx="141.4526084687783" cy="161.0958999623563" r="8" fill="#FF8A65" stroke="#e65100" stroke-width="1.5" />
  <circle cx="271.01474516342404" cy="197.31890902252536" r="8" fill="#FF8A65" stroke="#e65100" stroke-width="1.5" />
  <circle cx="89.47662710983106" cy="149.3432753666928" r="8" fill="#FF8A65" stroke="#e65100" stroke-width="1.5" />
  <circle cx="247.97381693296654" cy="250.74520627337822" r="8" fill="#FF8A65" stroke="#e65100" stroke-width="1.5" />
  <circle cx="239.49693738761982" cy="275.9463573387636" r="8" fill="#FF8A65" stroke="#e65100" stroke-width="1.5" />
  <circle cx="182.60789920548717" cy="324.62315279587415" r="8" fill="#FF8A65" stroke="#e65100" stroke-width="1.5" />
  <circle cx="149.49221921375423" cy="240.4081262546454" r="8" fill="#FF8A65" stroke="#e65100" stroke-width="1.5" />
  <circle cx="244.1749794931289" cy="253.70395047284921" r="8" fill="#FF8A65" stroke="#e65100" stroke-width="1.5" />
  <circle cx="250.95844906526318" cy="245.47042905135243" r="8" fill="#FF8A65" stroke="#e65100" stroke-width="1.5" />
  <circle cx="217.96008560513394" cy="139.16487673113244" r="8" fill="#FF8A65" stroke="#e65100" stroke-width="1.5" />
  <circle cx="117.85863788682484" cy="187.87759272042143" r="8" fill="#FF8A65" stroke="#e65100" stroke-width="1.5" />
  <circle cx="86.75631515396178" cy="176.55817727220602" r="8" fill="#FF8A65" stroke="#e65100" stroke-width="1.5" />
  <circle cx="91.21030017604312" cy="185.59472062201843" r="8" fill="#FF8A65" stroke="#e65100" stroke-width="1.5" />
  <circle cx="203.493733295524" cy="202.96643579401683" r="8" fill="#FF8A65" stroke="#e65100" stroke-width="1.5" />
  <circle cx="147.73800309454532" cy="171.90140615429755" r="8" fill="#FF8A65" stroke="#e65100" stroke-width="1.5" />
  <circle cx="126.06534263031381" cy="317.3309175424988" r="8" fill="#FF8A65" stroke="#e65100" stroke-width="1.5" />
  <circle cx="206.08743090178461" cy="251.82620113339763" r="8" fill="#FF8A65" stroke="#e65100" stroke-width="1.5" />
  <circle cx="105.93911612160036" cy="275.82535959006987" r="8" fill="#FF8A65" stroke="#e65100" stroke-width="1.5" />
  <circle cx="104.31452369000496" cy="205.89108835152956" r="8" fill="#FF8A65" stroke="#e65100" stroke-width="1.5" />
  <circle cx="277.79990363368495" cy="257.9999519708186" r="8" fill="#FF8A65" stroke="#e65100" stroke-width="1.5" />
  <circle cx="186.9594461926757" cy="266.9228501979749" r="8" fill="#FF8A65" stroke="#e65100" stroke-width="1.5" />
  <circle cx="246.99890323986" cy="285.199982309249" r="8" fill="#FF8A65" stroke="#e65100" stroke-width="1.5" />
  <circle cx="118.10009511246191" cy="136.42004878080755" r="8" fill="#FF8A65" stroke="#e65100" stroke-width="1.5" />
  <circle cx="136.2451400924072" cy="183.54817519514054" r="8" fill="#FF8A65" stroke="#e65100" stroke-width="1.5" />
  <circle cx="114.30639715312856" cy="318.58194286701087" r="8" fill="#FF8A65" stroke="#e65100" stroke-width="1.5" />
  <circle cx="254.03720155926047" cy="192.9355761596956" r="8" fill="#FF8A65" stroke="#e65100" stroke-width="1.5" />
  <circle cx="207.6421197119248" cy="209.12638021213286" r="8" fill="#FF8A65" stroke="#e65100" stroke-width="1.5" />
  <circle cx="262.0549938455141" cy="221.77037051747976" r="8" fill="#FF8A65" stroke="#e65100" stroke-width="1.5" />
  <circle cx="125.62483496459102" cy="179.3255015387967" r="8" fill="#FF8A65" stroke="#e65100" stroke-width="1.5" />
  <circle cx="598.4104402489452" cy="182.54832170458707" r="8" fill="#80CBC4" stroke="#00695c" stroke-width="1.5" />
  <circle cx="605.3757970670622" cy="309.5645767204954" r="8" fill="#80CBC4" stroke="#00695c" stroke-width="1.5" />
  <circle cx="549.8201515421192" cy="173.86415183145667" r="8" fill="#80CBC4" stroke="#00695c" stroke-width="1.5" />
  <circle cx="729.261281948533" cy="231.9052587352929" r="8" fill="#80CBC4" stroke="#00695c" stroke-width="1.5" />
  <circle cx="457.2728236521382" cy="139.4232750849469" r="8" fill="#80CBC4" stroke="#00695c" stroke-width="1.5" />
  <circle cx="462.89473910519774" cy="255.489208340618" r="8" fill="#80CBC4" stroke="#00695c" stroke-width="1.5" />
  <circle cx="667.6238093088892" cy="214.43199335993683" r="8" fill="#80CBC4" stroke="#00695c" stroke-width="1.5" />
  <circle cx="449.0583118455871" cy="206.32385730130736" r="8" fill="#80CBC4" stroke="#00695c" stroke-width="1.5" />
  <circle cx="728.836414072029" cy="235.8228690198274" r="8" fill="#80CBC4" stroke="#00695c" stroke-width="1.5" />
  <circle cx="721.3235132840855" cy="302.15594044689965" r="8" fill="#80CBC4" stroke="#00695c" stroke-width="1.5" />
  <circle cx="433.4443065828459" cy="274.1443638720389" r="8" fill="#80CBC4" stroke="#00695c" stroke-width="1.5" />
  <circle cx="634.5131107079724" cy="237.39406608175904" r="8" fill="#80CBC4" stroke="#00695c" stroke-width="1.5" />
  <defs><marker id="bigArrow" viewBox="0 0 10 10" refX="9" refY="5" markerWidth="8" markerHeight="8" orient="auto"><path d="M 0 0 L 10 5 L 0 10 z" fill="#1565c0" /></marker></defs>
  <line x1="200" y1="380" x2="600" y2="380" stroke="#1565c0" stroke-width="4" marker-end="url(#bigArrow)" />
  <text x="400" y="408" font-size="14" fill="#1565c0" text-anchor="middle" font-weight="bold">Molecules move HIGH → LOW</text>
</svg>