<?xml version="1.0" encoding="UTF-8"?>
<svg xmlns="http://www.w3.org/2000/svg" viewBox="0 0 800 450" 
     width="800" height="450" style="background: white; font-family: Arial, Helvetica, sans-serif;">
  <text x="400" y="35" font-size="22" fill="#333333" text-anchor="middle" font-weight="bold">Facilitated Diffusion</text>
  <text x="400" y="58" font-size="13" fill="#666666" text-anchor="middle" font-weight="normal">Molecules need a protein door to cross</text>
  <text x="130" y="105" font-size="15" fill="#1565c0" text-anchor="middle" font-weight="bold">OUTSIDE (High)</text>
  <text x="130" y="380" font-size="15" fill="#00695c" text-anchor="middle" font-weight="bold">INSIDE (Low)</text>
  <rect x="60" y="200" width="250" height="60" fill="#FFB74D" stroke="#E69500" rx="8" />
  <rect x="490" y="200" width="250" height="60" fill="#FFB74D" stroke="#E69500" rx="8" />
  <text x="185" y="235" font-size="12" fill="#7A4A00" text-anchor="middle" font-weight="bold">Cell Membrane</text>
  <text x="615" y="235" font-size="12" fill="#7A4A00" text-anchor="middle" font-weight="bold">Cell Membrane</text>
  <circle cx="80" cy="215" r="5" fill="#FFE0B2" stroke="#E69500" stroke-width="1" />
  <circle cx="80" cy="245" r="5" fill="#FFE0B2" stroke="#E69500" stroke-width="1" />
  <circle cx="110" cy="215" r="5" fill="#FFE0B2" stroke="#E69500" stroke-width="1" />
  <circle cx="110" cy="245" r="5" fill="#FFE0B2" stroke="#E69500" stroke-width="1" />
  <circle cx="140" cy="215" r="5" fill="#FFE0B2" stroke="#E69500" stroke-width="1" />
  <circle cx="140" cy="245" r="5" fill="#FFE0B2" stroke="#E69500" stroke-width="1" />
  <circle cx="170" cy="215" r="5" fill="#FFE0B2" stroke="#E69500" stroke-width="1" />
  <circle cx="170" cy="245" r="5" fill="#FFE0B2" stroke="#E69500" stroke-width="1" />
  <circle cx="200" cy="215" r="5" fill="#FFE0B2" stroke="#E69500" stroke-width="1" />
  <circle cx="200" cy="245" r="5" fill="#FFE0B2" stroke="#E69500" stroke-width="1" />
  <circle cx="230" cy="215" r="5" fill="#FFE0B2" stroke="#E69500" stroke-width="1" />
  <circle cx="230" cy="245" r="5" fill="#FFE0B2" stroke="#E69500" stroke-width="1" />
  <circle cx="260" cy="215" r="5" fill="#FFE0B2" stroke="#E69500" stroke-width="1" />
  <circle cx="260" cy="245" r="5" fill="#FFE0B2" stroke="#E69500" stroke-width="1" />
  <circle cx="290" cy="215" r="5" fill="#FFE0B2" stroke="#E69500" stroke-width="1" />
  <circle cx="290" cy="245" r="5" fill="#FFE0B2" stroke="#E69500" stroke-width="1" />
  <circle cx="510" cy="215" r="5" fill="#FFE0B2" stroke="#E69500" stroke-width="1" />
  <circle cx="510" cy="245" r="5" fill="#FFE0B2" stroke="#E69500" stroke-width="1" />
  <circle cx="540" cy="215" r="5" fill="#FFE0B2" stroke="#E69500" stroke-width="1" />
  <circle cx="540" cy="245" r="5" fill="#FFE0B2" stroke="#E69500" stroke-width="1" />
  <circle cx="570" cy="215" r="5" fill="#FFE0B2" stroke="#E69500" stroke-width="1" />
  <circle cx="570" cy="245" r="5" fill="#FFE0B2" stroke="#E69500" stroke-width="1" />
  <circle cx="600" cy="215" r="5" fill="#FFE0B2" stroke="#E69500" stroke-width="1" />
  <circle cx="600" cy="245" r="5" fill="#FFE0B2" stroke="#E69500" stroke-width="1" />
  <circle cx="630" cy="215" r="5" fill="#FFE0B2" stroke="#E69500" stroke-width="1" />
  <circle cx="630" cy="245" r="5" fill="#FFE0B2" stroke="#E69500" stroke-width="1" />
  <circle cx="660" cy="215" r="5" fill="#FFE0B2" stroke="#E69500" stroke-width="1" />
  <circle cx="660" cy="245" r="5" fill="#FFE0B2" stroke="#E69500" stroke-width="1" />
  <circle cx="690" cy="215" r="5" fill="#FFE0B2" stroke="#E69500" stroke-width="1" />
  <circle cx="690" cy="245" r="5" fill="#FFE0B2" stroke="#E69500" stroke-width="1" />
  <circle cx="720" cy="215" r="5" fill="#FFE0B2" stroke="#E69500" stroke-width="1" />
  <circle cx="720" cy="245" r="5" fill="#FFE0B2" stroke="#E69500" stroke-width="1" />
  <rect x="310" y="180" width="30" height="100" fill="#E1BEE7" stroke="#7b1fa2" stroke-width="2" rx="10" />
  <rect x="460" y="180" width="30" height="100" fill="#E1BEE7" stroke="#7b1fa2" stroke-width="2" rx="10" />
  <rect x="300" y="175" width="50" height="15" fill="#E1BEE7" stroke="#7b1fa2" stroke-width="2" rx="6" />
  <rect x="450" y="175" width="50" height="15" fill="#E1BEE7" stroke="#7b1fa2" stroke-width="2" rx="6" />
  <rect x="300" y="270" width="50" height="15" fill="#E1BEE7" stroke="#7b1fa2" stroke-width="2" rx="6" />
  <rect x="450" y="270" width="50" height="15" fill="#E1BEE7" stroke="#7b1fa2" stroke-width="2" rx="6" />
  <text x="400" y="310" font-size="14" fill="#7b1fa2" text-anchor="middle" font-weight="bold">Transport Protein</text>
  <text x="400" y="328" font-size="12" fill="#666666" text-anchor="middle" font-weight="normal">(the door)</text>
  <circle cx="340" cy="100" r="8" fill="#BBDEFB" stroke="#1565c0" stroke-width="2" />
  <circle cx="370" cy="85" r="8" fill="#BBDEFB" stroke="#1565c0" stroke-width="2" />
  <circle cx="410" cy="95" r="8" fill="#BBDEFB" stroke="#1565c0" stroke-width="2" />
  <circle cx="440" cy="80" r="8" fill="#BBDEFB" stroke="#1565c0" stroke-width="2" />
  <circle cx="460" cy="105" r="8" fill="#BBDEFB" stroke="#1565c0" stroke-width="2" />
  <circle cx="380" cy="115" r="8" fill="#BBDEFB" stroke="#1565c0" stroke-width="2" />
  <circle cx="420" cy="120" r="8" fill="#BBDEFB" stroke="#1565c0" stroke-width="2" />
  <circle cx="355" cy="135" r="8" fill="#BBDEFB" stroke="#1565c0" stroke-width="2" />
  <circle cx="445" cy="130" r="8" fill="#BBDEFB" stroke="#1565c0" stroke-width="2" />
  <circle cx="390" cy="145" r="8" fill="#BBDEFB" stroke="#1565c0" stroke-width="2" />
  <circle cx="430" cy="150" r="8" fill="#BBDEFB" stroke="#1565c0" stroke-width="2" />
  <circle cx="370" cy="160" r="8" fill="#BBDEFB" stroke="#1565c0" stroke-width="2" />
  <circle cx="500" cy="90" r="8" fill="#BBDEFB" stroke="#1565c0" stroke-width="2" />
  <circle cx="530" cy="100" r="8" fill="#BBDEFB" stroke="#1565c0" stroke-width="2" />
  <circle cx="550" cy="115" r="8" fill="#BBDEFB" stroke="#1565c0" stroke-width="2" />
  <circle cx="280" cy="95" r="8" fill="#BBDEFB" stroke="#1565c0" stroke-width="2" />
  <circle cx="260" cy="110" r="8" fill="#BBDEFB" stroke="#1565c0" stroke-width="2" />
  <circle cx="300" cy="130" r="8" fill="#BBDEFB" stroke="#1565c0" stroke-width="2" />
  <circle cx="390" cy="210" r="8" fill="#BBDEFB" stroke="#1565c0" stroke-width="2" />
  <circle cx="410" cy="235" r="8" fill="#BBDEFB" stroke="#1565c0" stroke-width="2" />
  <circle cx="370" cy="330" r="8" fill="#BBDEFB" stroke="#1565c0" stroke-width="2" />
  <circle cx="430" cy="345" r="8" fill="#BBDEFB" stroke="#1565c0" stroke-width="2" />
  <circle cx="400" cy="360" r="8" fill="#BBDEFB" stroke="#1565c0" stroke-width="2" />
  <defs><marker id="arrow_400_155_400_175" viewBox="0 0 10 10" refX="9" refY="5" markerWidth="6" markerHeight="6" orient="auto-start-reverse"><path d="M 0 0 L 10 5 L 0 10 z" fill="#c62828" /></marker></defs>
  <line x1="400" y1="155" x2="400" y2="175" stroke="#c62828" stroke-width="3" marker-end="url(#arrow_400_155_400_175)" />
  <defs><marker id="arrow_700_110_700_370" viewBox="0 0 10 10" refX="9" refY="5" markerWidth="6" markerHeight="6" orient="auto-start-reverse"><path d="M 0 0 L 10 5 L 0 10 z" fill="#c62828" /></marker></defs>
  <line x1="700" y1="110" x2="700" y2="370" stroke="#c62828" stroke-width="3" marker-end="url(#arrow_700_110_700_370)" />
  <text x="700" y="95" font-size="14" fill="#c62828" text-anchor="middle" font-weight="bold">HIGH</text>
  <text x="700" y="395" font-size="14" fill="#c62828" text-anchor="middle" font-weight="bold">LOW</text>
  <rect x="150" y="410" width="500" height="30" fill="#e8f5e9" stroke="#43a047" rx="6" />
  <text x="400" y="430" font-size="13" fill="#43a047" text-anchor="middle" font-weight="bold">No energy needed — moves HIGH to LOW</text>
</svg>