<?xml version="1.0" encoding="UTF-8"?>
<svg xmlns="http://www.w3.org/2000/svg" viewBox="0 0 800 460" 
     width="800" height="460" style="background: white; font-family: Arial, Helvetica, sans-serif;">
  <text x="400" y="32" font-size="20" fill="#333333" text-anchor="middle" font-weight="bold">Simple Diffusion</text>
  <text x="400" y="54" font-size="13" fill="#666666" text-anchor="middle" font-weight="normal">Small, nonpolar molecules pass straight through</text>
  <rect x="30" y="75" width="200" height="36" fill="#e3f2fd" stroke="#1565c0" rx="8" />
  <text x="130" y="99" font-size="13" fill="#1565c0" text-anchor="middle" font-weight="bold">HIGH concentration</text>
  <rect x="570" y="75" width="200" height="36" fill="#e3f2fd" stroke="#1565c0" rx="8" />
  <text x="670" y="99" font-size="13" fill="#1565c0" text-anchor="middle" font-weight="bold">LOW concentration</text>
  <defs><marker id="arrow_200_98_560_98" viewBox="0 0 10 10" refX="9" refY="5" markerWidth="6" markerHeight="6" orient="auto-start-reverse"><path d="M 0 0 L 10 5 L 0 10 z" fill="#90CAF9" /></marker></defs>
  <line x1="200" y1="98" x2="560" y2="98" stroke="#90CAF9" stroke-width="3" marker-end="url(#arrow_200_98_560_98)" />
  <rect x="370" y="120" width="60" height="300" fill="#FFF3E0" stroke="#FFB74D" rx="0" />
  <circle cx="377" cy="135" r="7" fill="#FFB74D" stroke="#E65100" stroke-width="1" />
  <line x1="377" y1="132" x2="395" y2="130" stroke="#FFB74D" stroke-width="2" stroke-linecap="round"/>
  <line x1="377" y1="138" x2="395" y2="140" stroke="#FFB74D" stroke-width="2" stroke-linecap="round"/>
  <circle cx="377" cy="165" r="7" fill="#FFB74D" stroke="#E65100" stroke-width="1" />
  <line x1="377" y1="162" x2="395" y2="160" stroke="#FFB74D" stroke-width="2" stroke-linecap="round"/>
  <line x1="377" y1="168" x2="395" y2="170" stroke="#FFB74D" stroke-width="2" stroke-linecap="round"/>
  <circle cx="377" cy="195" r="7" fill="#FFB74D" stroke="#E65100" stroke-width="1" />
  <line x1="377" y1="192" x2="395" y2="190" stroke="#FFB74D" stroke-width="2" stroke-linecap="round"/>
  <line x1="377" y1="198" x2="395" y2="200" stroke="#FFB74D" stroke-width="2" stroke-linecap="round"/>
  <circle cx="377" cy="225" r="7" fill="#FFB74D" stroke="#E65100" stroke-width="1" />
  <line x1="377" y1="222" x2="395" y2="220" stroke="#FFB74D" stroke-width="2" stroke-linecap="round"/>
  <line x1="377" y1="228" x2="395" y2="230" stroke="#FFB74D" stroke-width="2" stroke-linecap="round"/>
  <circle cx="377" cy="255" r="7" fill="#FFB74D" stroke="#E65100" stroke-width="1" />
  <line x1="377" y1="252" x2="395" y2="250" stroke="#FFB74D" stroke-width="2" stroke-linecap="round"/>
  <line x1="377" y1="258" x2="395" y2="260" stroke="#FFB74D" stroke-width="2" stroke-linecap="round"/>
  <circle cx="377" cy="285" r="7" fill="#FFB74D" stroke="#E65100" stroke-width="1" />
  <line x1="377" y1="282" x2="395" y2="280" stroke="#FFB74D" stroke-width="2" stroke-linecap="round"/>
  <line x1="377" y1="288" x2="395" y2="290" stroke="#FFB74D" stroke-width="2" stroke-linecap="round"/>
  <circle cx="377" cy="315" r="7" fill="#FFB74D" stroke="#E65100" stroke-width="1" />
  <line x1="377" y1="312" x2="395" y2="310" stroke="#FFB74D" stroke-width="2" stroke-linecap="round"/>
  <line x1="377" y1="318" x2="395" y2="320" stroke="#FFB74D" stroke-width="2" stroke-linecap="round"/>
  <circle cx="377" cy="345" r="7" fill="#FFB74D" stroke="#E65100" stroke-width="1" />
  <line x1="377" y1="342" x2="395" y2="340" stroke="#FFB74D" stroke-width="2" stroke-linecap="round"/>
  <line x1="377" y1="348" x2="395" y2="350" stroke="#FFB74D" stroke-width="2" stroke-linecap="round"/>
  <circle cx="377" cy="375" r="7" fill="#FFB74D" stroke="#E65100" stroke-width="1" />
  <line x1="377" y1="372" x2="395" y2="370" stroke="#FFB74D" stroke-width="2" stroke-linecap="round"/>
  <line x1="377" y1="378" x2="395" y2="380" stroke="#FFB74D" stroke-width="2" stroke-linecap="round"/>
  <circle cx="377" cy="405" r="7" fill="#FFB74D" stroke="#E65100" stroke-width="1" />
  <line x1="377" y1="402" x2="395" y2="400" stroke="#FFB74D" stroke-width="2" stroke-linecap="round"/>
  <line x1="377" y1="408" x2="395" y2="410" stroke="#FFB74D" stroke-width="2" stroke-linecap="round"/>
  <circle cx="423" cy="135" r="7" fill="#FFB74D" stroke="#E65100" stroke-width="1" />
  <line x1="423" y1="132" x2="405" y2="130" stroke="#FFB74D" stroke-width="2" stroke-linecap="round"/>
  <line x1="423" y1="138" x2="405" y2="140" stroke="#FFB74D" stroke-width="2" stroke-linecap="round"/>
  <circle cx="423" cy="165" r="7" fill="#FFB74D" stroke="#E65100" stroke-width="1" />
  <line x1="423" y1="162" x2="405" y2="160" stroke="#FFB74D" stroke-width="2" stroke-linecap="round"/>
  <line x1="423" y1="168" x2="405" y2="170" stroke="#FFB74D" stroke-width="2" stroke-linecap="round"/>
  <circle cx="423" cy="195" r="7" fill="#FFB74D" stroke="#E65100" stroke-width="1" />
  <line x1="423" y1="192" x2="405" y2="190" stroke="#FFB74D" stroke-width="2" stroke-linecap="round"/>
  <line x1="423" y1="198" x2="405" y2="200" stroke="#FFB74D" stroke-width="2" stroke-linecap="round"/>
  <circle cx="423" cy="225" r="7" fill="#FFB74D" stroke="#E65100" stroke-width="1" />
  <line x1="423" y1="222" x2="405" y2="220" stroke="#FFB74D" stroke-width="2" stroke-linecap="round"/>
  <line x1="423" y1="228" x2="405" y2="230" stroke="#FFB74D" stroke-width="2" stroke-linecap="round"/>
  <circle cx="423" cy="255" r="7" fill="#FFB74D" stroke="#E65100" stroke-width="1" />
  <line x1="423" y1="252" x2="405" y2="250" stroke="#FFB74D" stroke-width="2" stroke-linecap="round"/>
  <line x1="423" y1="258" x2="405" y2="260" stroke="#FFB74D" stroke-width="2" stroke-linecap="round"/>
  <circle cx="423" cy="285" r="7" fill="#FFB74D" stroke="#E65100" stroke-width="1" />
  <line x1="423" y1="282" x2="405" y2="280" stroke="#FFB74D" stroke-width="2" stroke-linecap="round"/>
  <line x1="423" y1="288" x2="405" y2="290" stroke="#FFB74D" stroke-width="2" stroke-linecap="round"/>
  <circle cx="423" cy="315" r="7" fill="#FFB74D" stroke="#E65100" stroke-width="1" />
  <line x1="423" y1="312" x2="405" y2="310" stroke="#FFB74D" stroke-width="2" stroke-linecap="round"/>
  <line x1="423" y1="318" x2="405" y2="320" stroke="#FFB74D" stroke-width="2" stroke-linecap="round"/>
  <circle cx="423" cy="345" r="7" fill="#FFB74D" stroke="#E65100" stroke-width="1" />
  <line x1="423" y1="342" x2="405" y2="340" stroke="#FFB74D" stroke-width="2" stroke-linecap="round"/>
  <line x1="423" y1="348" x2="405" y2="350" stroke="#FFB74D" stroke-width="2" stroke-linecap="round"/>
  <circle cx="423" cy="375" r="7" fill="#FFB74D" stroke="#E65100" stroke-width="1" />
  <line x1="423" y1="372" x2="405" y2="370" stroke="#FFB74D" stroke-width="2" stroke-linecap="round"/>
  <line x1="423" y1="378" x2="405" y2="380" stroke="#FFB74D" stroke-width="2" stroke-linecap="round"/>
  <circle cx="423" cy="405" r="7" fill="#FFB74D" stroke="#E65100" stroke-width="1" />
  <line x1="423" y1="402" x2="405" y2="400" stroke="#FFB74D" stroke-width="2" stroke-linecap="round"/>
  <line x1="423" y1="408" x2="405" y2="410" stroke="#FFB74D" stroke-width="2" stroke-linecap="round"/>
  <text x="400" y="438" font-size="13" fill="#E65100" text-anchor="middle" font-weight="bold">Cell Membrane</text>
  <text x="400" y="454" font-size="11" fill="#666666" text-anchor="middle" font-weight="normal">(phospholipid bilayer)</text>
  <circle cx="80" cy="185" r="12" fill="#43a047" stroke="white" stroke-width="2" />
  <text x="80" y="190" font-size="9" fill="white" text-anchor="middle" font-weight="bold">O₂</text>
  <circle cx="140" cy="185" r="12" fill="#43a047" stroke="white" stroke-width="2" />
  <text x="140" y="190" font-size="9" fill="white" text-anchor="middle" font-weight="bold">O₂</text>
  <circle cx="200" cy="185" r="12" fill="#43a047" stroke="white" stroke-width="2" />
  <text x="200" y="190" font-size="9" fill="white" text-anchor="middle" font-weight="bold">O₂</text>
  <defs><marker id="arrow_240_185_370_185" viewBox="0 0 10 10" refX="9" refY="5" markerWidth="6" markerHeight="6" orient="auto-start-reverse"><path d="M 0 0 L 10 5 L 0 10 z" fill="#43a047" /></marker></defs>
  <line x1="240" y1="185" x2="370" y2="185" stroke="#43a047" stroke-width="3" marker-end="url(#arrow_240_185_370_185)" />
  <line x1="370" y1="185" x2="430" y2="185" stroke="#43a047" stroke-width="2" stroke-dasharray="5,4" />
  <defs><marker id="arrow_430_185_560_185" viewBox="0 0 10 10" refX="9" refY="5" markerWidth="6" markerHeight="6" orient="auto-start-reverse"><path d="M 0 0 L 10 5 L 0 10 z" fill="#43a047" /></marker></defs>
  <line x1="430" y1="185" x2="560" y2="185" stroke="#43a047" stroke-width="3" marker-end="url(#arrow_430_185_560_185)" />
  <circle cx="600" cy="185" r="12" fill="#43a047" stroke="white" stroke-width="2" />
  <text x="600" y="190" font-size="9" fill="white" text-anchor="middle" font-weight="bold">O₂</text>
  <circle cx="80" cy="270" r="12" fill="#1565c0" stroke="white" stroke-width="2" />
  <text x="80" y="275" font-size="9" fill="white" text-anchor="middle" font-weight="bold">CO₂</text>
  <circle cx="140" cy="270" r="12" fill="#1565c0" stroke="white" stroke-width="2" />
  <text x="140" y="275" font-size="9" fill="white" text-anchor="middle" font-weight="bold">CO₂</text>
  <circle cx="200" cy="270" r="12" fill="#1565c0" stroke="white" stroke-width="2" />
  <text x="200" y="275" font-size="9" fill="white" text-anchor="middle" font-weight="bold">CO₂</text>
  <defs><marker id="arrow_240_270_370_270" viewBox="0 0 10 10" refX="9" refY="5" markerWidth="6" markerHeight="6" orient="auto-start-reverse"><path d="M 0 0 L 10 5 L 0 10 z" fill="#1565c0" /></marker></defs>
  <line x1="240" y1="270" x2="370" y2="270" stroke="#1565c0" stroke-width="3" marker-end="url(#arrow_240_270_370_270)" />
  <line x1="370" y1="270" x2="430" y2="270" stroke="#1565c0" stroke-width="2" stroke-dasharray="5,4" />
  <defs><marker id="arrow_430_270_560_270" viewBox="0 0 10 10" refX="9" refY="5" markerWidth="6" markerHeight="6" orient="auto-start-reverse"><path d="M 0 0 L 10 5 L 0 10 z" fill="#1565c0" /></marker></defs>
  <line x1="430" y1="270" x2="560" y2="270" stroke="#1565c0" stroke-width="3" marker-end="url(#arrow_430_270_560_270)" />
  <circle cx="600" cy="270" r="12" fill="#1565c0" stroke="white" stroke-width="2" />
  <text x="600" y="275" font-size="9" fill="white" text-anchor="middle" font-weight="bold">CO₂</text>
  <circle cx="80" cy="355" r="12" fill="#7b1fa2" stroke="white" stroke-width="2" />
  <text x="80" y="360" font-size="9" fill="white" text-anchor="middle" font-weight="bold">N₂</text>
  <circle cx="140" cy="355" r="12" fill="#7b1fa2" stroke="white" stroke-width="2" />
  <text x="140" y="360" font-size="9" fill="white" text-anchor="middle" font-weight="bold">N₂</text>
  <circle cx="200" cy="355" r="12" fill="#7b1fa2" stroke="white" stroke-width="2" />
  <text x="200" y="360" font-size="9" fill="white" text-anchor="middle" font-weight="bold">N₂</text>
  <defs><marker id="arrow_240_355_370_355" viewBox="0 0 10 10" refX="9" refY="5" markerWidth="6" markerHeight="6" orient="auto-start-reverse"><path d="M 0 0 L 10 5 L 0 10 z" fill="#7b1fa2" /></marker></defs>
  <line x1="240" y1="355" x2="370" y2="355" stroke="#7b1fa2" stroke-width="3" marker-end="url(#arrow_240_355_370_355)" />
  <line x1="370" y1="355" x2="430" y2="355" stroke="#7b1fa2" stroke-width="2" stroke-dasharray="5,4" />
  <defs><marker id="arrow_430_355_560_355" viewBox="0 0 10 10" refX="9" refY="5" markerWidth="6" markerHeight="6" orient="auto-start-reverse"><path d="M 0 0 L 10 5 L 0 10 z" fill="#7b1fa2" /></marker></defs>
  <line x1="430" y1="355" x2="560" y2="355" stroke="#7b1fa2" stroke-width="3" marker-end="url(#arrow_430_355_560_355)" />
  <circle cx="600" cy="355" r="12" fill="#7b1fa2" stroke="white" stroke-width="2" />
  <text x="600" y="360" font-size="9" fill="white" text-anchor="middle" font-weight="bold">N₂</text>
  <rect x="30" y="380" width="220" height="55" fill="#FAFAFA" stroke="#ddd" rx="6" />
  <text x="40" y="400" font-size="12" fill="#43a047" text-anchor="start" font-weight="bold">No energy needed</text>
  <text x="40" y="420" font-size="12" fill="#43a047" text-anchor="start" font-weight="bold">No protein channel needed</text>
  <rect x="550" y="380" width="220" height="55" fill="#FAFAFA" stroke="#ddd" rx="6" />
  <text x="560" y="400" font-size="12" fill="#1565c0" text-anchor="start" font-weight="bold">= passive transport</text>
  <text x="560" y="420" font-size="12" fill="#1565c0" text-anchor="start" font-weight="bold">High → Low concentration</text>
</svg>