<?xml version="1.0" encoding="UTF-8"?>
<svg xmlns="http://www.w3.org/2000/svg" viewBox="0 0 800 445" 
     width="800" height="445" style="background: white; font-family: Arial, Helvetica, sans-serif;">
  <text x="400" y="32" font-size="20" fill="#333333" text-anchor="middle" font-weight="bold">Concentration Gradient</text>
  <text x="400" y="52" font-size="13" fill="#666666" text-anchor="middle" font-weight="normal">Molecules always move: HIGH → LOW</text>
  <rect x="50" y="68" width="218" height="300" fill="#fff3e0" stroke="#e65100" rx="8" />
  <rect x="50" y="68" width="218" height="40" fill="#e65100" rx="8"/>
  <rect x="50" y="94" width="218" height="14" fill="#e65100" rx="0"/>
  <text x="159" y="95" font-size="14" fill="white" text-anchor="middle" font-weight="bold">1. Clustered</text>
  <rect x="291" y="68" width="218" height="300" fill="#e3f2fd" stroke="#00695c" rx="8" />
  <rect x="291" y="68" width="218" height="40" fill="#00695c" rx="8"/>
  <rect x="291" y="94" width="218" height="14" fill="#00695c" rx="0"/>
  <text x="400" y="95" font-size="14" fill="white" text-anchor="middle" font-weight="bold">2. Spreading</text>
  <rect x="532" y="68" width="218" height="300" fill="#e3f2fd" stroke="#1565c0" rx="8" />
  <rect x="532" y="68" width="218" height="40" fill="#1565c0" rx="8"/>
  <rect x="532" y="94" width="218" height="14" fill="#1565c0" rx="0"/>
  <text x="641" y="95" font-size="14" fill="white" text-anchor="middle" font-weight="bold">3. Equal</text>
  <line x1="159" y1="108" x2="159" y2="340" stroke="#bbb" stroke-width="1.5" stroke-dasharray="5,4"/>
  <circle cx="72" cy="136" r="7" fill="#7b1fa2" stroke="#4a148c" stroke-width="1" />
  <circle cx="102" cy="123" r="7" fill="#7b1fa2" stroke="#4a148c" stroke-width="1" />
  <circle cx="132" cy="138" r="7" fill="#7b1fa2" stroke="#4a148c" stroke-width="1" />
  <circle cx="78" cy="171" r="7" fill="#7b1fa2" stroke="#4a148c" stroke-width="1" />
  <circle cx="110" cy="160" r="7" fill="#7b1fa2" stroke="#4a148c" stroke-width="1" />
  <circle cx="140" cy="176" r="7" fill="#7b1fa2" stroke="#4a148c" stroke-width="1" />
  <circle cx="70" cy="208" r="7" fill="#7b1fa2" stroke="#4a148c" stroke-width="1" />
  <circle cx="105" cy="198" r="7" fill="#7b1fa2" stroke="#4a148c" stroke-width="1" />
  <circle cx="138" cy="213" r="7" fill="#7b1fa2" stroke="#4a148c" stroke-width="1" />
  <circle cx="82" cy="243" r="7" fill="#7b1fa2" stroke="#4a148c" stroke-width="1" />
  <circle cx="115" cy="233" r="7" fill="#7b1fa2" stroke="#4a148c" stroke-width="1" />
  <circle cx="145" cy="248" r="7" fill="#7b1fa2" stroke="#4a148c" stroke-width="1" />
  <circle cx="75" cy="278" r="7" fill="#7b1fa2" stroke="#4a148c" stroke-width="1" />
  <circle cx="108" cy="268" r="7" fill="#7b1fa2" stroke="#4a148c" stroke-width="1" />
  <circle cx="142" cy="283" r="7" fill="#7b1fa2" stroke="#4a148c" stroke-width="1" />
  <circle cx="88" cy="313" r="7" fill="#7b1fa2" stroke="#4a148c" stroke-width="1" />
  <circle cx="120" cy="306" r="7" fill="#7b1fa2" stroke="#4a148c" stroke-width="1" />
  <circle cx="188" cy="148" r="7" fill="#7b1fa2" stroke="#4a148c" stroke-width="1" />
  <circle cx="222" cy="233" r="7" fill="#7b1fa2" stroke="#4a148c" stroke-width="1" />
  <circle cx="200" cy="310" r="7" fill="#7b1fa2" stroke="#4a148c" stroke-width="1" />
  <rect x="204" y="112" width="16" height="22" fill="#e0e0e0" stroke="#999" rx="3" />
  <line x1="220" y1="117" x2="230" y2="117" stroke="#999" stroke-width="2"/>
  <line x1="230" y1="117" x2="230" y2="127" stroke="#999" stroke-width="2"/>
  <circle cx="234" cy="111" r="2" fill="#7b1fa2" opacity="0.5"/>
  <circle cx="239" cy="116" r="2" fill="#7b1fa2" opacity="0.5"/>
  <circle cx="234" cy="121" r="2" fill="#7b1fa2" opacity="0.5"/>
  <circle cx="243" cy="113" r="2" fill="#7b1fa2" opacity="0.5"/>
  <circle cx="243" cy="119" r="2" fill="#7b1fa2" opacity="0.5"/>
  <text x="109" y="356" font-size="12" fill="#e65100" text-anchor="middle" font-weight="bold">HIGH</text>
  <text x="209" y="356" font-size="12" fill="#1565c0" text-anchor="middle" font-weight="bold">LOW</text>
  <circle cx="309" cy="133" r="7" fill="#7b1fa2" stroke="#4a148c" stroke-width="1" />
  <circle cx="336" cy="123" r="7" fill="#7b1fa2" stroke="#4a148c" stroke-width="1" />
  <circle cx="321" cy="168" r="7" fill="#7b1fa2" stroke="#4a148c" stroke-width="1" />
  <circle cx="371" cy="150" r="7" fill="#7b1fa2" stroke="#4a148c" stroke-width="1" />
  <circle cx="396" cy="183" r="7" fill="#7b1fa2" stroke="#4a148c" stroke-width="1" />
  <circle cx="383" cy="218" r="7" fill="#7b1fa2" stroke="#4a148c" stroke-width="1" />
  <circle cx="363" cy="243" r="7" fill="#7b1fa2" stroke="#4a148c" stroke-width="1" />
  <circle cx="406" cy="250" r="7" fill="#7b1fa2" stroke="#4a148c" stroke-width="1" />
  <circle cx="439" cy="163" r="7" fill="#7b1fa2" stroke="#4a148c" stroke-width="1" />
  <circle cx="463" cy="203" r="7" fill="#7b1fa2" stroke="#4a148c" stroke-width="1" />
  <circle cx="446" cy="248" r="7" fill="#7b1fa2" stroke="#4a148c" stroke-width="1" />
  <circle cx="466" cy="278" r="7" fill="#7b1fa2" stroke="#4a148c" stroke-width="1" />
  <circle cx="313" cy="263" r="7" fill="#7b1fa2" stroke="#4a148c" stroke-width="1" />
  <circle cx="349" cy="283" r="7" fill="#7b1fa2" stroke="#4a148c" stroke-width="1" />
  <circle cx="421" cy="300" r="7" fill="#7b1fa2" stroke="#4a148c" stroke-width="1" />
  <circle cx="456" cy="316" r="7" fill="#7b1fa2" stroke="#4a148c" stroke-width="1" />
  <defs><marker id="arrow_309_333_487_333" viewBox="0 0 10 10" refX="9" refY="5" markerWidth="6" markerHeight="6" orient="auto-start-reverse"><path d="M 0 0 L 10 5 L 0 10 z" fill="#00695c" /></marker></defs>
  <line x1="309" y1="333" x2="487" y2="333" stroke="#00695c" stroke-width="2" marker-end="url(#arrow_309_333_487_333)" />
  <defs><marker id="arrow_309_348_487_348" viewBox="0 0 10 10" refX="9" refY="5" markerWidth="6" markerHeight="6" orient="auto-start-reverse"><path d="M 0 0 L 10 5 L 0 10 z" fill="#00695c" /></marker></defs>
  <line x1="309" y1="348" x2="487" y2="348" stroke="#00695c" stroke-width="2" marker-end="url(#arrow_309_348_487_348)" />
  <text x="400" y="356" font-size="12" fill="#00695c" text-anchor="middle" font-weight="bold">Moving →</text>
  <circle cx="558" cy="129" r="7" fill="#7b1fa2" stroke="#4a148c" stroke-width="1" />
  <circle cx="584" cy="132" r="7" fill="#7b1fa2" stroke="#4a148c" stroke-width="1" />
  <circle cx="625" cy="131" r="7" fill="#7b1fa2" stroke="#4a148c" stroke-width="1" />
  <circle cx="663" cy="129" r="7" fill="#7b1fa2" stroke="#4a148c" stroke-width="1" />
  <circle cx="708" cy="136" r="7" fill="#7b1fa2" stroke="#4a148c" stroke-width="1" />
  <circle cx="733" cy="137" r="7" fill="#7b1fa2" stroke="#4a148c" stroke-width="1" />
  <circle cx="554" cy="168" r="7" fill="#7b1fa2" stroke="#4a148c" stroke-width="1" />
  <circle cx="584" cy="169" r="7" fill="#7b1fa2" stroke="#4a148c" stroke-width="1" />
  <circle cx="625" cy="171" r="7" fill="#7b1fa2" stroke="#4a148c" stroke-width="1" />
  <circle cx="669" cy="177" r="7" fill="#7b1fa2" stroke="#4a148c" stroke-width="1" />
  <circle cx="698" cy="176" r="7" fill="#7b1fa2" stroke="#4a148c" stroke-width="1" />
  <circle cx="735" cy="178" r="7" fill="#7b1fa2" stroke="#4a148c" stroke-width="1" />
  <circle cx="559" cy="216" r="7" fill="#7b1fa2" stroke="#4a148c" stroke-width="1" />
  <circle cx="590" cy="211" r="7" fill="#7b1fa2" stroke="#4a148c" stroke-width="1" />
  <circle cx="629" cy="217" r="7" fill="#7b1fa2" stroke="#4a148c" stroke-width="1" />
  <circle cx="665" cy="208" r="7" fill="#7b1fa2" stroke="#4a148c" stroke-width="1" />
  <circle cx="710" cy="210" r="7" fill="#7b1fa2" stroke="#4a148c" stroke-width="1" />
  <circle cx="553" cy="252" r="7" fill="#7b1fa2" stroke="#4a148c" stroke-width="1" />
  <circle cx="586" cy="251" r="7" fill="#7b1fa2" stroke="#4a148c" stroke-width="1" />
  <circle cx="634" cy="253" r="7" fill="#7b1fa2" stroke="#4a148c" stroke-width="1" />
  <circle cx="662" cy="249" r="7" fill="#7b1fa2" stroke="#4a148c" stroke-width="1" />
  <circle cx="704" cy="249" r="7" fill="#7b1fa2" stroke="#4a148c" stroke-width="1" />
  <circle cx="737" cy="253" r="7" fill="#7b1fa2" stroke="#4a148c" stroke-width="1" />
  <circle cx="557" cy="292" r="7" fill="#7b1fa2" stroke="#4a148c" stroke-width="1" />
  <circle cx="596" cy="288" r="7" fill="#7b1fa2" stroke="#4a148c" stroke-width="1" />
  <circle cx="633" cy="295" r="7" fill="#7b1fa2" stroke="#4a148c" stroke-width="1" />
  <circle cx="669" cy="289" r="7" fill="#7b1fa2" stroke="#4a148c" stroke-width="1" />
  <circle cx="704" cy="289" r="7" fill="#7b1fa2" stroke="#4a148c" stroke-width="1" />
  <circle cx="740" cy="292" r="7" fill="#7b1fa2" stroke="#4a148c" stroke-width="1" />
  <circle cx="558" cy="334" r="7" fill="#7b1fa2" stroke="#4a148c" stroke-width="1" />
  <circle cx="589" cy="334" r="7" fill="#7b1fa2" stroke="#4a148c" stroke-width="1" />
  <circle cx="625" cy="326" r="7" fill="#7b1fa2" stroke="#4a148c" stroke-width="1" />
  <circle cx="661" cy="335" r="7" fill="#7b1fa2" stroke="#4a148c" stroke-width="1" />
  <circle cx="701" cy="329" r="7" fill="#7b1fa2" stroke="#4a148c" stroke-width="1" />
  <circle cx="733" cy="328" r="7" fill="#7b1fa2" stroke="#4a148c" stroke-width="1" />
  <text x="641" y="356" font-size="12" fill="#1565c0" text-anchor="middle" font-weight="bold">Equilibrium</text>
  <text x="400" y="392" font-size="12" fill="#666666" text-anchor="middle" font-weight="normal">Time passes</text>
  <defs><marker id="arrow_68_406_732_406" viewBox="0 0 10 10" refX="9" refY="5" markerWidth="6" markerHeight="6" orient="auto-start-reverse"><path d="M 0 0 L 10 5 L 0 10 z" fill="#333333" /></marker></defs>
  <line x1="68" y1="406" x2="732" y2="406" stroke="#333333" stroke-width="2" marker-end="url(#arrow_68_406_732_406)" />
  <text x="400" y="435" font-size="11" fill="#666666" text-anchor="middle" font-weight="normal">Like perfume spreading across a room</text>
</svg>