<?xml version="1.0" encoding="UTF-8"?>
<svg xmlns="http://www.w3.org/2000/svg" viewBox="0 0 800 420" 
     width="800" height="420" style="background: white; font-family: Arial, Helvetica, sans-serif;">
  <text x="400" y="32" font-size="20" fill="#333333" text-anchor="middle" font-weight="bold">Tonicity: The Three Solutions</text>
  <rect x="37" y="50" width="230" height="355" fill="#ffebee" stroke="#c62828" rx="8" />
  <rect x="37" y="50" width="230" height="44" fill="#c62828" rx="8" />
  <rect x="37" y="72" width="230" height="22" fill="#c62828" />
  <text x="152" y="79" font-size="16" fill="white" text-anchor="middle" font-weight="bold">Hypertonic</text>
  <text x="152" y="112" font-size="12" fill="#666666" text-anchor="middle" font-weight="normal">More solute outside</text>
  <rect x="52" y="125" width="200" height="185" fill="#f0f7ff" stroke="#ccc" rx="6" stroke-dasharray="4,2" />
  <text x="152" y="142" font-size="10" fill="#666666" text-anchor="middle" font-weight="normal">Outside</text>
  <ellipse cx="152" cy="210" rx="48" ry="48" fill="#FFF9C4" stroke="#FFB74D" stroke-width="3" />
  <text x="152" y="214" font-size="11" fill="#333333" text-anchor="middle" font-weight="bold">Cell</text>
  <circle cx="67" cy="165" r="4" fill="#c62828" stroke="none" stroke-width="0" />
  <circle cx="97" cy="155" r="4" fill="#c62828" stroke="none" stroke-width="0" />
  <circle cx="237" cy="165" r="4" fill="#c62828" stroke="none" stroke-width="0" />
  <circle cx="207" cy="155" r="4" fill="#c62828" stroke="none" stroke-width="0" />
  <circle cx="72" cy="275" r="4" fill="#c62828" stroke="none" stroke-width="0" />
  <circle cx="232" cy="275" r="4" fill="#c62828" stroke="none" stroke-width="0" />
  <circle cx="92" cy="290" r="4" fill="#c62828" stroke="none" stroke-width="0" />
  <circle cx="212" cy="290" r="4" fill="#c62828" stroke="none" stroke-width="0" />
  <circle cx="77" cy="230" r="4" fill="#c62828" stroke="none" stroke-width="0" />
  <circle cx="227" cy="230" r="4" fill="#c62828" stroke="none" stroke-width="0" />
  <circle cx="142" cy="198" r="4" fill="#e65100" stroke="none" stroke-width="0" />
  <circle cx="164" cy="220" r="4" fill="#e65100" stroke="none" stroke-width="0" />
  <defs><marker id="arrow_102_210_76_210" viewBox="0 0 10 10" refX="9" refY="5" markerWidth="6" markerHeight="6" orient="auto-start-reverse"><path d="M 0 0 L 10 5 L 0 10 z" fill="#64B5F6" /></marker></defs>
  <line x1="102" y1="210" x2="76" y2="210" stroke="#64B5F6" stroke-width="3" marker-end="url(#arrow_102_210_76_210)" />
  <defs><marker id="arrow_202_210_228_210" viewBox="0 0 10 10" refX="9" refY="5" markerWidth="6" markerHeight="6" orient="auto-start-reverse"><path d="M 0 0 L 10 5 L 0 10 z" fill="#64B5F6" /></marker></defs>
  <line x1="202" y1="210" x2="228" y2="210" stroke="#64B5F6" stroke-width="3" marker-end="url(#arrow_202_210_228_210)" />
  <text x="152" y="276" font-size="11" fill="#64B5F6" text-anchor="middle" font-weight="bold">H₂O</text>
  <text x="152" y="340" font-size="14" fill="#c62828" text-anchor="middle" font-weight="bold">Cell shrinks</text>
  <rect x="285" y="50" width="230" height="355" fill="#e3f2fd" stroke="#1565c0" rx="8" />
  <rect x="285" y="50" width="230" height="44" fill="#1565c0" rx="8" />
  <rect x="285" y="72" width="230" height="22" fill="#1565c0" />
  <text x="400" y="79" font-size="16" fill="white" text-anchor="middle" font-weight="bold">Hypotonic</text>
  <text x="400" y="112" font-size="12" fill="#666666" text-anchor="middle" font-weight="normal">Less solute outside</text>
  <rect x="300" y="125" width="200" height="185" fill="#f0f7ff" stroke="#ccc" rx="6" stroke-dasharray="4,2" />
  <text x="400" y="142" font-size="10" fill="#666666" text-anchor="middle" font-weight="normal">Outside</text>
  <ellipse cx="400" cy="210" rx="62" ry="58" fill="#FFF9C4" stroke="#FFB74D" stroke-width="3" />
  <text x="400" y="214" font-size="11" fill="#333333" text-anchor="middle" font-weight="bold">Cell</text>
  <circle cx="325" cy="170" r="4" fill="#1565c0" stroke="none" stroke-width="0" />
  <circle cx="475" cy="280" r="4" fill="#1565c0" stroke="none" stroke-width="0" />
  <circle cx="385" cy="195" r="4" fill="#e65100" stroke="none" stroke-width="0" />
  <circle cx="410" cy="202" r="4" fill="#e65100" stroke="none" stroke-width="0" />
  <circle cx="395" cy="225" r="4" fill="#e65100" stroke="none" stroke-width="0" />
  <circle cx="418" cy="220" r="4" fill="#e65100" stroke="none" stroke-width="0" />
  <circle cx="388" cy="215" r="4" fill="#e65100" stroke="none" stroke-width="0" />
  <circle cx="405" cy="192" r="4" fill="#e65100" stroke="none" stroke-width="0" />
  <defs><marker id="arrow_310_210_336_210" viewBox="0 0 10 10" refX="9" refY="5" markerWidth="6" markerHeight="6" orient="auto-start-reverse"><path d="M 0 0 L 10 5 L 0 10 z" fill="#64B5F6" /></marker></defs>
  <line x1="310" y1="210" x2="336" y2="210" stroke="#64B5F6" stroke-width="3" marker-end="url(#arrow_310_210_336_210)" />
  <defs><marker id="arrow_490_210_464_210" viewBox="0 0 10 10" refX="9" refY="5" markerWidth="6" markerHeight="6" orient="auto-start-reverse"><path d="M 0 0 L 10 5 L 0 10 z" fill="#64B5F6" /></marker></defs>
  <line x1="490" y1="210" x2="464" y2="210" stroke="#64B5F6" stroke-width="3" marker-end="url(#arrow_490_210_464_210)" />
  <text x="400" y="286" font-size="11" fill="#64B5F6" text-anchor="middle" font-weight="bold">H₂O</text>
  <text x="400" y="340" font-size="14" fill="#1565c0" text-anchor="middle" font-weight="bold">Cell swells</text>
  <rect x="533" y="50" width="230" height="355" fill="#e8f5e9" stroke="#43a047" rx="8" />
  <rect x="533" y="50" width="230" height="44" fill="#43a047" rx="8" />
  <rect x="533" y="72" width="230" height="22" fill="#43a047" />
  <text x="648" y="79" font-size="16" fill="white" text-anchor="middle" font-weight="bold">Isotonic</text>
  <text x="648" y="112" font-size="12" fill="#666666" text-anchor="middle" font-weight="normal">Equal solute</text>
  <rect x="548" y="125" width="200" height="185" fill="#f0f7ff" stroke="#ccc" rx="6" stroke-dasharray="4,2" />
  <text x="648" y="142" font-size="10" fill="#666666" text-anchor="middle" font-weight="normal">Outside</text>
  <ellipse cx="648" cy="210" rx="55" ry="55" fill="#FFF9C4" stroke="#FFB74D" stroke-width="3" />
  <text x="648" y="214" font-size="11" fill="#333333" text-anchor="middle" font-weight="bold">Cell</text>
  <circle cx="568" cy="170" r="4" fill="#43a047" stroke="none" stroke-width="0" />
  <circle cx="728" cy="170" r="4" fill="#43a047" stroke="none" stroke-width="0" />
  <circle cx="568" cy="280" r="4" fill="#43a047" stroke="none" stroke-width="0" />
  <circle cx="728" cy="280" r="4" fill="#43a047" stroke="none" stroke-width="0" />
  <circle cx="636" cy="200" r="4" fill="#e65100" stroke="none" stroke-width="0" />
  <circle cx="660" cy="200" r="4" fill="#e65100" stroke="none" stroke-width="0" />
  <circle cx="636" cy="222" r="4" fill="#e65100" stroke="none" stroke-width="0" />
  <circle cx="660" cy="222" r="4" fill="#e65100" stroke="none" stroke-width="0" />
  <defs><marker id="arrow_591_200_569_200" viewBox="0 0 10 10" refX="9" refY="5" markerWidth="6" markerHeight="6" orient="auto-start-reverse"><path d="M 0 0 L 10 5 L 0 10 z" fill="#64B5F6" /></marker></defs>
  <line x1="591" y1="200" x2="569" y2="200" stroke="#64B5F6" stroke-width="2" marker-end="url(#arrow_591_200_569_200)" />
  <defs><marker id="arrow_569_220_591_220" viewBox="0 0 10 10" refX="9" refY="5" markerWidth="6" markerHeight="6" orient="auto-start-reverse"><path d="M 0 0 L 10 5 L 0 10 z" fill="#64B5F6" /></marker></defs>
  <line x1="569" y1="220" x2="591" y2="220" stroke="#64B5F6" stroke-width="2" marker-end="url(#arrow_569_220_591_220)" />
  <defs><marker id="arrow_705_200_727_200" viewBox="0 0 10 10" refX="9" refY="5" markerWidth="6" markerHeight="6" orient="auto-start-reverse"><path d="M 0 0 L 10 5 L 0 10 z" fill="#64B5F6" /></marker></defs>
  <line x1="705" y1="200" x2="727" y2="200" stroke="#64B5F6" stroke-width="2" marker-end="url(#arrow_705_200_727_200)" />
  <defs><marker id="arrow_727_220_705_220" viewBox="0 0 10 10" refX="9" refY="5" markerWidth="6" markerHeight="6" orient="auto-start-reverse"><path d="M 0 0 L 10 5 L 0 10 z" fill="#64B5F6" /></marker></defs>
  <line x1="727" y1="220" x2="705" y2="220" stroke="#64B5F6" stroke-width="2" marker-end="url(#arrow_727_220_705_220)" />
  <text x="648" y="283" font-size="11" fill="#64B5F6" text-anchor="middle" font-weight="bold">H₂O equal</text>
  <text x="648" y="340" font-size="14" fill="#43a047" text-anchor="middle" font-weight="bold">Cell stays same</text>
  <circle cx="240" cy="395" r="4" fill="#1565c0" stroke="none" stroke-width="0" />
  <text x="260" y="399" font-size="10" fill="#666666" text-anchor="start" font-weight="normal">= solute</text>
  <line x1="330" y1="395" x2="360" y2="395" stroke="#64B5F6" stroke-width="3" />
  <text x="370" y="399" font-size="10" fill="#666666" text-anchor="start" font-weight="normal">= water movement</text>
</svg>