<?xml version="1.0" encoding="UTF-8"?>
<svg xmlns="http://www.w3.org/2000/svg" viewBox="0 0 800 360" 
     width="800" height="360" style="background: white; font-family: Arial, Helvetica, sans-serif;">
  <text x="400" y="30" font-size="20" fill="#1565c0" text-anchor="middle" font-weight="bold">Concentration Gradient</text>
  <text x="400" y="52" font-size="13" fill="#666666" text-anchor="middle" font-weight="normal">Molecules move from HIGH to LOW concentration</text>
  <rect x="80" y="70" width="200" height="200" fill="white" stroke="#ccc" rx="4" />
  <text x="180" y="95" font-size="14" fill="#1565c0" text-anchor="middle" font-weight="bold">Before</text>
  <line x1="180" y1="110" x2="180" y2="250" stroke="#FFB74D" stroke-width="3" stroke-dasharray="8,4" />
  <rect x="310" y="70" width="200" height="200" fill="white" stroke="#ccc" rx="4" />
  <text x="410" y="95" font-size="14" fill="#1565c0" text-anchor="middle" font-weight="bold">During</text>
  <line x1="410" y1="110" x2="410" y2="250" stroke="#FFB74D" stroke-width="3" stroke-dasharray="8,4" />
  <rect x="540" y="70" width="200" height="200" fill="white" stroke="#ccc" rx="4" />
  <text x="640" y="95" font-size="14" fill="#1565c0" text-anchor="middle" font-weight="bold">After</text>
  <line x1="640" y1="110" x2="640" y2="250" stroke="#FFB74D" stroke-width="3" stroke-dasharray="8,4" />
  <circle cx="100" cy="140" r="6" fill="#1565c0" stroke="none" stroke-width="0" />
  <circle cx="115" cy="140" r="6" fill="#1565c0" stroke="none" stroke-width="0" />
  <circle cx="130" cy="140" r="6" fill="#1565c0" stroke="none" stroke-width="0" />
  <circle cx="145" cy="140" r="6" fill="#1565c0" stroke="none" stroke-width="0" />
  <circle cx="100" cy="165" r="6" fill="#1565c0" stroke="none" stroke-width="0" />
  <circle cx="115" cy="165" r="6" fill="#1565c0" stroke="none" stroke-width="0" />
  <circle cx="130" cy="165" r="6" fill="#1565c0" stroke="none" stroke-width="0" />
  <circle cx="145" cy="165" r="6" fill="#1565c0" stroke="none" stroke-width="0" />
  <circle cx="100" cy="190" r="6" fill="#1565c0" stroke="none" stroke-width="0" />
  <circle cx="115" cy="190" r="6" fill="#1565c0" stroke="none" stroke-width="0" />
  <circle cx="130" cy="190" r="6" fill="#1565c0" stroke="none" stroke-width="0" />
  <circle cx="145" cy="190" r="6" fill="#1565c0" stroke="none" stroke-width="0" />
  <circle cx="330" cy="140" r="6" fill="#1565c0" stroke="none" stroke-width="0" />
  <circle cx="350" cy="160" r="6" fill="#1565c0" stroke="none" stroke-width="0" />
  <circle cx="370" cy="150" r="6" fill="#1565c0" stroke="none" stroke-width="0" />
  <circle cx="390" cy="180" r="6" fill="#1565c0" stroke="none" stroke-width="0" />
  <circle cx="340" cy="200" r="6" fill="#1565c0" stroke="none" stroke-width="0" />
  <circle cx="420" cy="140" r="6" fill="#1565c0" stroke="none" stroke-width="0" />
  <circle cx="440" cy="170" r="6" fill="#1565c0" stroke="none" stroke-width="0" />
  <circle cx="460" cy="200" r="6" fill="#1565c0" stroke="none" stroke-width="0" />
  <circle cx="380" cy="220" r="6" fill="#1565c0" stroke="none" stroke-width="0" />
  <circle cx="330" cy="230" r="6" fill="#1565c0" stroke="none" stroke-width="0" />
  <circle cx="450" cy="230" r="6" fill="#1565c0" stroke="none" stroke-width="0" />
  <circle cx="410" cy="160" r="6" fill="#1565c0" stroke="none" stroke-width="0" />
  <circle cx="560" cy="130" r="6" fill="#1565c0" stroke="none" stroke-width="0" />
  <circle cx="600" cy="130" r="6" fill="#1565c0" stroke="none" stroke-width="0" />
  <circle cx="640" cy="130" r="6" fill="#1565c0" stroke="none" stroke-width="0" />
  <circle cx="680" cy="130" r="6" fill="#1565c0" stroke="none" stroke-width="0" />
  <circle cx="560" cy="165" r="6" fill="#1565c0" stroke="none" stroke-width="0" />
  <circle cx="600" cy="165" r="6" fill="#1565c0" stroke="none" stroke-width="0" />
  <circle cx="640" cy="165" r="6" fill="#1565c0" stroke="none" stroke-width="0" />
  <circle cx="680" cy="165" r="6" fill="#1565c0" stroke="none" stroke-width="0" />
  <circle cx="560" cy="200" r="6" fill="#1565c0" stroke="none" stroke-width="0" />
  <circle cx="600" cy="200" r="6" fill="#1565c0" stroke="none" stroke-width="0" />
  <circle cx="640" cy="200" r="6" fill="#1565c0" stroke="none" stroke-width="0" />
  <circle cx="680" cy="200" r="6" fill="#1565c0" stroke="none" stroke-width="0" />
  <defs><marker id="arrow_290_170_305_170" viewBox="0 0 10 10" refX="9" refY="5" markerWidth="6" markerHeight="6" orient="auto-start-reverse"><path d="M 0 0 L 10 5 L 0 10 z" fill="#333333" /></marker></defs>
  <line x1="290" y1="170" x2="305" y2="170" stroke="#333333" stroke-width="2" marker-end="url(#arrow_290_170_305_170)" />
  <defs><marker id="arrow_520_170_535_170" viewBox="0 0 10 10" refX="9" refY="5" markerWidth="6" markerHeight="6" orient="auto-start-reverse"><path d="M 0 0 L 10 5 L 0 10 z" fill="#333333" /></marker></defs>
  <line x1="520" y1="170" x2="535" y2="170" stroke="#333333" stroke-width="2" marker-end="url(#arrow_520_170_535_170)" />
  <text x="400" y="310" font-size="14" fill="#43a047" text-anchor="middle" font-weight="bold">This happens naturally — no energy needed!</text>
  <text x="400" y="335" font-size="12" fill="#666666" text-anchor="middle" font-weight="normal">equilibrium = equal concentration on both sides</text>
</svg>